<?xml version="1.0" encoding="utf-8"?>
<!-- Generator: Adobe Illustrator 25.4.1, SVG Export Plug-In . SVG Version: 6.00 Build 0)  -->
<svg version="1.1" id="Layer_1" xmlns="http://www.w3.org/2000/svg" xmlns:xlink="http://www.w3.org/1999/xlink" x="0px" y="0px"
	 width="1024px" height="522px" viewBox="0 0 1024 522" style="enable-background:new 0 0 1024 522;" xml:space="preserve">
<style type="text/css">
	.st0{fill:#35D86D;}
	.st1{fill:#FFFFFF;}
</style>
<g>
	<g>
		<path class="st0" d="M372.6,181.7L372.6,181.7c-18.2,0-33,14.8-33,33s14.8,33,33,33h0c18.2,0,33-14.8,33-33
			S390.8,181.7,372.6,181.7z"/>
		<path class="st0" d="M732.2,124.7L674.4,9.1c-2.8-5.6-8.5-9.1-14.8-9.1h-55.8h-49.6L340.2,0c-7.9,0-15.2,5.3-16.8,13.1
			c-2.1,10.6,5.9,19.9,16.2,19.9l197.6,0c7.9,0,15.2,5.3,16.8,13.1c2.1,10.6-5.9,19.9-16.2,19.9h-33c-9.1,0-16.5,7.4-16.5,16.5v0
			c0,9.1,7.4,16.5,16.5,16.5l32.4,0c7.9,0,15.2,5.3,16.8,13.1c2.1,10.6-5.9,19.9-16.2,19.9l-197.6,0c-7.9,0-15.2,5.3-16.8,13.1
			c-2.1,10.6,5.9,19.9,16.2,19.9l197.6,0c7.9,0,15.2,5.3,16.8,13.1c2.1,10.6-5.9,19.9-16.2,19.9h-99.1c-9.1,0-16.5,7.4-16.5,16.5v0
			c0,9.1,7.4,16.5,16.5,16.5h115.6h28.9c4.2,0,7.2-3.9,6.1-7.9c-2-7.2-1.5-15.4,2.3-23.7c5.1-11.1,16.4-17.9,28.6-17.9h0.1
			c15.8,0,30,10.7,33.2,26.1c1.1,5.4,0.9,10.7-0.4,15.5c-1.1,4,2,7.9,6.1,7.9l0,0h16.9c6.3,0,12-3.5,14.8-9.1l41.3-82.6
			C734.6,134.9,734.6,129.4,732.2,124.7z"/>
		<path class="st0" d="M306.5,198.2L306.5,198.2c-9.1,0-16.5,7.4-16.5,16.5s7.4,16.5,16.5,16.5h0c9.1,0,16.5-7.4,16.5-16.5
			S315.7,198.2,306.5,198.2z"/>
		<path class="st0" d="M422.1,99.1h12.5h4.1c9.1,0,16.5-7.4,16.5-16.5s-7.4-16.5-16.5-16.5h-4.1h-12.5h-16.5
			c-9.1,0-16.5,7.4-16.5,16.5s7.4,16.5,16.5,16.5H422.1z"/>
	</g>
	<g>
		<path class="st1" d="M125.7,431.4L63.2,310.7c-0.8-1.5-2.3-2.4-4-2.4l-55,1.7c-3.2,0.1-5.2,3.4-3.8,6.3L99,519.5
			c0.7,1.5,2.3,2.5,3.9,2.5h51.8c1.7,0,3.2-1,3.9-2.5l99.2-205.8c1.4-2.9-0.7-6.3-3.9-6.3h-53.8c-1.6,0-3.1,0.9-3.9,2.4l-62.8,121.5
			C131.8,434.5,127.3,434.5,125.7,431.4z"/>
		<path class="st1" d="M276.9,522h51.5c2.4,0,4.4-2,4.4-4.4V311.9c0-2.4-2-4.4-4.4-4.4h-51.5c-2.4,0-4.4,2-4.4,4.4v205.8
			C272.6,520,274.5,522,276.9,522z"/>
		<path class="st1" d="M402.7,384.9c-3.4-6.4-5.1-13.6-5.1-21.4c0-12,3.7-21.7,11.1-28.9c7.4-7.2,17.2-10.8,29.2-10.8
			c8.4,0,15.9,2,22.3,5.9c5.2,3.2,9.9,7.5,14.1,12.8c1.6,2,4.6,2.2,6.4,0.5l4.9-4.6c1.6-1.5,1.8-3.9,0.6-5.7c-3-4.3-6.5-8-10.6-11.2
			c-5-3.9-10.7-7-17-9.2c-6.3-2.2-13.3-3.3-20.9-3.3c-10.8,0-20.5,2.3-28.9,6.9c-8.4,4.6-15,10.9-19.7,19c-4.7,8-7.1,17.4-7.1,28
			c0,9.2,2,18,6,26.2c1.5,3.1,3.3,6.1,5.4,9.3c1.4,2,0.7,4.8-1.4,6.1c-8.3,5.2-15.1,12-20.3,20.3c-6.8,10.7-10.2,22.4-10.2,35.1
			c0,11.9,2.8,22.3,8.3,31.3c5.5,9,13.2,16.2,22.9,21.4c9.7,5.2,20.9,7.8,33.6,7.8c8.6,0,16.8-1.3,24.6-3.9
			c7.7-2.6,14.8-6.3,21.1-11c3.4-2.5,6.4-5.2,9-8.2c1.7-1.9,4.6-2,6.4-0.2l18.4,18.9c0.8,0.8,2,1.3,3.1,1.3h7.8
			c3.9,0,5.8-4.6,3.1-7.4l-99.8-103.2C411.8,398.7,406.1,391.4,402.7,384.9z M456.6,498.2c-8.8,5-18.8,7.5-29.8,7.5
			c-9.6,0-18.2-2-25.8-5.9c-7.5-3.9-13.5-9.3-17.8-16.1c-4.3-6.8-6.5-14.8-6.5-23.8c0-10.8,2.9-20.7,8.6-29.7
			c4.3-6.8,9.7-12.3,16.1-16.4c1.7-1.1,4-0.8,5.4,0.6c0,0,0,0,0,0l64,65.9c1.5,1.6,1.7,4.1,0.2,5.8
			C467.2,490.9,462.3,494.9,456.6,498.2z"/>
		<path class="st1" d="M1015.4,372c-5.7-13-13.8-24.4-24.2-34.1c-10.4-9.7-22.7-17.1-36.9-22.5c-14.2-5.3-29.7-8-46.5-8
			c-16.9,0-32.4,2.7-46.5,8c-14.2,5.3-26.5,12.8-36.9,22.5c-10.4,9.7-18.5,21-24.2,33.9c-5.7,12.9-8.6,27.1-8.6,42.6
			c0,15.3,2.9,29.5,8.7,42.6c5.8,13.1,14,24.5,24.6,34.2c10.5,9.7,22.9,17.2,37.1,22.6c14.2,5.4,29.7,8.1,46.5,8.1
			c16.7,0,32-2.7,46.1-8c14.1-5.3,26.3-12.8,36.7-22.6c10.4-9.8,18.5-21.2,24.2-34.2c5.7-13,8.6-27.2,8.6-42.5
			C1024,399.3,1021.1,385.1,1015.4,372z M955.9,444.3c-4.4,8.5-10.7,15.1-19,19.7c-8.2,4.6-18,7-29.2,7c-8.4,0-16-1.3-22.7-3.9
			c-6.7-2.6-12.5-6.4-17.3-11.3c-4.8-4.9-8.5-10.9-11-17.8c-2.5-7-3.8-14.8-3.8-23.5c0-11.4,2.2-21.3,6.6-29.7
			c4.4-8.4,10.7-14.9,19-19.4c8.2-4.5,18-6.8,29.2-6.8c8.4,0,16,1.3,22.7,3.9c6.7,2.6,12.5,6.4,17.3,11.3c4.8,4.9,8.5,10.8,11,17.7
			c2.5,6.9,3.8,14.5,3.8,23C962.5,425.9,960.3,435.8,955.9,444.3z"/>
		<path class="st1" d="M732.2,309.4L667,405.2c-1.7,2.5-5.5,2.5-7.2,0l-65.4-95.8c-0.8-1.2-2.2-1.9-3.6-1.9h-37
			c-2.4,0-4.4,2-4.4,4.4v205.8c0,2.4,2,4.4,4.4,4.4h50.9c2.4,0,4.4-2,4.4-4.4V435c0-4.3,5.5-6,8-2.5l42.7,62.2
			c1.7,2.5,5.4,2.5,7.2,0l42.7-61.9c2.4-3.5,8-1.8,8,2.5v82.4c0,2.4,2,4.4,4.4,4.4h50.9c2.4,0,4.4-2,4.4-4.4V311.9
			c0-2.4-2-4.4-4.4-4.4h-37C734.3,307.5,733,308.2,732.2,309.4z"/>
	</g>
</g>
</svg>
